Coordinates
version=1
nRows=11
nColumns=40
inDegrees=yes

Units are S.I. units (second, meters, Newtons, ...)
Angles are in degrees.

endheader
time	pelvis_tilt	pelvis_list	pelvis_rotation	pelvis_tx	pelvis_ty	pelvis_tz	hip_flexion_r	hip_adduction_r	hip_rotation_r	knee_angle_r	knee_angle_r_beta	ankle_angle_r	subtalar_angle_r	mtp_angle_r	hip_flexion_l	hip_adduction_l	hip_rotation_l	knee_angle_l	knee_angle_l_beta	ankle_angle_l	subtalar_angle_l	mtp_angle_l	lumbar_extension	lumbar_bending	lumbar_rotation	arm_flex_r	arm_add_r	arm_rot_r	elbow_flex_r	pro_sup_r	wrist_flex_r	wrist_dev_r	arm_flex_l	arm_add_l	arm_rot_l	elbow_flex_l	pro_sup_l	wrist_flex_l	wrist_dev_l
     29.92500000	     -4.88086648	     -5.19345817	     -1.33472948	      1.08124361	      0.92694188	      0.46414253	     18.07169956	      2.07134961	    -11.15822767	     18.35594068	     18.35594068	      6.45830263	     -3.79874945	     -3.99578907	      8.67344519	    -11.59171749	    -10.54075380	     32.54782009	     32.54782009	     17.10351381	    -11.35082939	     -1.37636426	     -9.49403395	      6.71569278	      1.40207558	      6.92093976	    -17.14996591	     -9.40036106	     50.24756978	     44.14164486	      0.00000000	      0.00000000	      6.29018059	    -14.43982860	     -2.46495100	     48.47092322	     45.56850439	      0.00000000	      0.00000000
     29.93885714	     -4.68919995	     -5.20112994	     -0.90367749	      1.08160198	      0.92714505	      0.46700761	     17.55126070	      2.17819904	    -11.44767785	     18.57736084	     18.57736084	      6.93824992	     -3.95837391	     -4.01726214	     10.01684333	    -12.18371751	     -9.63530052	     35.73423230	     35.73423230	     15.76099533	    -12.26372275	     -2.52106965	     -9.53087178	      6.79557994	      1.31071824	      7.30386427	    -17.47526583	     -9.27708534	     52.07405766	     44.08777854	      0.00000000	      0.00000000	      5.50697045	    -14.47412712	     -2.82704425	     48.08088122	     45.60268286	      0.00000000	      0.00000000
     29.95271429	     -4.46905039	     -5.12240875	     -0.52414706	      1.08178662	      0.92731468	      0.46976588	     17.06658987	      2.18195966	    -11.71455853	     18.93232572	     18.93232572	      7.61403909	     -3.98667259	     -3.52243208	     11.25613197	    -12.61079228	     -8.71670857	     38.52251164	     38.52251164	     12.07453342	    -14.50615871	     -8.19654030	     -9.71120922	      6.79517130	      1.68367749	      6.13547825	    -18.56532404	     -8.11875973	     57.56199996	     44.02325633	      0.00000000	      0.00000000	      5.15881334	    -14.00630317	     -4.28367195	     47.25323873	     45.83135606	      0.00000000	      0.00000000
     29.96657143	     -4.15944705	     -5.10691793	     -0.13265233	      1.08180839	      0.92757886	      0.47244830	     16.40957249	      2.27449294	    -12.00062686	     19.10846725	     19.10846725	      8.00917891	     -4.07418896	     -3.64204351	     12.80513820	    -13.15011553	     -7.74384808	     42.13592546	     42.13592546	     10.48544406	    -15.27043938	     -8.43916004	     -9.90398926	      6.82249626	      1.77620018	      6.96444956	    -18.91011991	     -8.26128418	     58.35965991	     44.01491667	      0.00000000	      0.00000000	      4.57986978	    -14.06931635	     -4.29277039	     46.88236605	     45.82790903	      0.00000000	      0.00000000
     29.98042857	     -4.06314682	     -5.12995920	      0.30718950	      1.08144820	      0.92742154	      0.47498533	     16.05165140	      2.38562222	    -12.33239529	     19.36412125	     19.36412125	      8.40569709	     -4.24122713	     -3.75145103	     14.79812928	    -13.62758022	     -6.51206894	     45.89219072	     45.89219072	      8.56848166	    -16.21790205	     -8.56859157	     -9.83196143	      6.86214497	      1.61330093	      7.73669148	    -19.21129367	     -8.31148672	     59.72777739	     43.98439394	      0.00000000	      0.00000000	      3.82079969	    -14.08800117	     -4.32085811	     46.34717085	     45.82421589	      0.00000000	      0.00000000
     29.99428571	     -3.94830554	     -5.07632033	      0.72183597	      1.08102685	      0.92728205	      0.47734052	     15.70381039	      2.41380691	    -12.56583856	     19.66813362	     19.66813362	      8.84523101	     -4.45279565	     -3.83696747	     16.76540714	    -13.92881980	     -5.30550063	     49.50516952	     49.50516952	      6.49415813	    -17.07825922	     -8.37314598	     -9.79618286	      6.84728145	      1.48980837	      8.45190737	    -19.54061080	     -8.22862519	     61.46245855	     43.93723166	      0.00000000	      0.00000000	      3.08661537	    -14.08108954	     -4.39698021	     45.74650528	     45.82569452	      0.00000000	      0.00000000
     30.00814286	     -3.88312653	     -4.88776437	      1.11616505	      1.08033610	      0.92706918	      0.47958230	     15.49689157	      2.30069489	    -12.65931974	     20.11319322	     20.11319322	      9.41389165	     -4.77074910	     -3.75190119	     18.81747799	    -13.97890554	     -4.13962386	     53.01943621	     53.01943621	      4.68708870	    -17.72733362	     -7.01329128	     -9.80643783	      6.65128507	      1.34762168	      8.62779398	    -20.11151148	     -7.51337867	     65.12939017	     43.82256330	      0.00000000	      0.00000000	      2.45374354	    -14.03324993	     -4.74919247	     44.74633134	     45.86388276	      0.00000000	      0.00000000
     30.02200000	     -3.66660394	     -4.84240812	      1.47331981	      1.07956893	      0.92715389	      0.48171458	     15.05448493	      2.34370308	    -12.88213659	     20.40295461	     20.40295461	      9.93085389	     -4.86586700	     -3.31630092	     20.77316496	    -14.09756942	     -2.96946882	     56.51963219	     56.51963219	      3.92836398	    -17.77807105	     -3.18279093	    -10.00738680	      6.63173240	      2.01485090	      8.32856333	    -21.34451045	     -6.85443422	     68.76016326	     43.77608708	      0.00000000	      0.00000000	      2.56703475	    -13.54655505	     -5.25670355	     43.39074366	     45.94487322	      0.00000000	      0.00000000
     30.03585714	     -3.55920044	     -4.72017838	      1.83428366	      1.07860545	      0.92714476	      0.48375816	     14.74871112	      2.31676100	    -12.97630776	     20.67884872	     20.67884872	     10.29168564	     -5.14677541	     -3.22268721	     22.69468521	    -14.07706765	     -1.93066505	     59.49634850	     59.49634850	      2.63074468	    -18.09379773	     -1.06398705	    -10.01652804	      6.46429124	      1.80537861	      9.32910487	    -21.47513326	     -6.90724486	     70.45057978	     43.77138387	      0.00000000	      0.00000000	      1.96922676	    -13.51533610	     -5.31453727	     42.32162695	     45.95193669	      0.00000000	      0.00000000
     30.04971429	     -3.41757956	     -4.63179463	      2.23255956	      1.07763879	      0.92729081	      0.48557204	     14.34704500	      2.32187818	    -13.13690405	     20.86124299	     20.86124299	     10.79249193	     -5.39304426	     -3.05854168	     24.49197322	    -13.98796307	     -0.94144703	     62.07791975	     62.07791975	      2.07476375	    -18.22865815	      2.48346761	    -10.05894337	      6.40317500	      1.85958675	     10.09637769	    -22.00166345	     -6.57923711	     72.54799582	     43.75495588	      0.00000000	      0.00000000	      1.67158464	    -13.27054494	     -5.51919910	     41.06060297	     45.98114835	      0.00000000	      0.00000000
     30.06357143	     -3.31266806	     -4.56191811	      2.58647671	      1.07652595	      0.92753917	      0.48739676	     13.93511871	      2.35273602	    -13.37482070	     20.92146633	     20.92146633	     11.17897676	     -5.44819477	     -2.75160235	     26.24986523	    -13.92773210	     -0.14530834	     64.27173353	     64.27173353	      2.17389939	    -18.15067235	      6.65208473	    -10.07582011	      6.27203373	      2.20876001	     10.71911993	    -22.64679421	     -6.39136015	     74.31225519	     43.80329753	      0.00000000	      0.00000000	      1.66338343	    -12.95034254	     -5.91995241	     39.59792601	     46.04533268	      0.00000000	      0.00000000
